<svg version="1.1" encoding="UTF-8"
     baseProfile="full"
     width="10652" height="2244"
     xmlns="http://www.w3.org/2000/svg">
    <rect width="100%" height="100%" fill="#ffffff"/>
    <rect width="100%" height="40" fill="#dee1e6"/>
    <text x="50%" y="25" font-weight="bold" style="text-anchor: middle;" font-size="18" fill="#333333">PhotoHub</text>
	<path d=" M 542 64 l 0 2180 M 619 64 l 0 2180 M 696 64 l 0 2180 M 773 64 l 0 2180 M 850 64 l 0 2180 M 927 64 l 0 2180 M 1004 64 l 0 2180 M 1081 64 l 0 2180 M 1158 64 l 0 2180 M 1235 64 l 0 2180 M 1312 64 l 0 2180 M 1389 64 l 0 2180 M 1466 64 l 0 2180 M 1543 64 l 0 2180 M 1620 64 l 0 2180 M 1697 64 l 0 2180 M 1774 64 l 0 2180 M 1851 64 l 0 2180 M 1928 64 l 0 2180 M 2005 64 l 0 2180 M 2082 64 l 0 2180 M 2159 64 l 0 2180 M 2236 64 l 0 2180 M 2313 64 l 0 2180 M 2390 64 l 0 2180 M 2467 64 l 0 2180 M 2544 64 l 0 2180 M 2621 64 l 0 2180 M 2698 64 l 0 2180 M 2775 64 l 0 2180 M 2852 64 l 0 2180 M 2929 64 l 0 2180 M 3006 64 l 0 2180 M 3083 64 l 0 2180 M 3160 64 l 0 2180 M 3237 64 l 0 2180 M 3314 64 l 0 2180 M 3391 64 l 0 2180 M 3468 64 l 0 2180 M 3545 64 l 0 2180 M 3622 64 l 0 2180 M 3699 64 l 0 2180 M 3776 64 l 0 2180 M 3853 64 l 0 2180 M 3930 64 l 0 2180 M 4007 64 l 0 2180 M 4084 64 l 0 2180 M 4161 64 l 0 2180 M 4238 64 l 0 2180 M 4315 64 l 0 2180 M 4392 64 l 0 2180 M 4469 64 l 0 2180 M 4546 64 l 0 2180 M 4623 64 l 0 2180 M 4700 64 l 0 2180 M 4777 64 l 0 2180 M 4854 64 l 0 2180 M 4931 64 l 0 2180 M 5008 64 l 0 2180 M 5085 64 l 0 2180 M 5162 64 l 0 2180 M 5239 64 l 0 2180 M 5316 64 l 0 2180 M 5393 64 l 0 2180 M 5470 64 l 0 2180 M 5547 64 l 0 2180 M 5624 64 l 0 2180 M 5701 64 l 0 2180 M 5778 64 l 0 2180 M 5855 64 l 0 2180 M 5932 64 l 0 2180 M 6009 64 l 0 2180 M 6086 64 l 0 2180 M 6163 64 l 0 2180 M 6240 64 l 0 2180 M 6317 64 l 0 2180 M 6394 64 l 0 2180 M 6471 64 l 0 2180 M 6548 64 l 0 2180 M 6625 64 l 0 2180 M 6702 64 l 0 2180 M 6779 64 l 0 2180 M 6856 64 l 0 2180 M 6933 64 l 0 2180 M 7010 64 l 0 2180 M 7087 64 l 0 2180 M 7164 64 l 0 2180 M 7241 64 l 0 2180 M 7318 64 l 0 2180 M 7395 64 l 0 2180 M 7472 64 l 0 2180 M 7549 64 l 0 2180 M 7626 64 l 0 2180 M 7703 64 l 0 2180 M 7780 64 l 0 2180 M 7857 64 l 0 2180 M 7934 64 l 0 2180 M 8011 64 l 0 2180 M 8088 64 l 0 2180 M 8165 64 l 0 2180 M 8242 64 l 0 2180 M 8319 64 l 0 2180 M 8396 64 l 0 2180 M 8473 64 l 0 2180 M 8550 64 l 0 2180 M 8627 64 l 0 2180 M 8704 64 l 0 2180 M 8781 64 l 0 2180 M 8858 64 l 0 2180 M 8935 64 l 0 2180 M 9012 64 l 0 2180 M 9089 64 l 0 2180 M 9166 64 l 0 2180 M 9243 64 l 0 2180 M 9320 64 l 0 2180 M 9397 64 l 0 2180 M 9474 64 l 0 2180 M 9551 64 l 0 2180 M 9628 64 l 0 2180 M 9705 64 l 0 2180 M 9782 64 l 0 2180 M 9859 64 l 0 2180 M 9936 64 l 0 2180 M 10013 64 l 0 2180 M 10090 64 l 0 2180 M 10167 64 l 0 2180 M 10244 64 l 0 2180 M 10321 64 l 0 2180 M 10398 64 l 0 2180 M 10475 64 l 0 2180 M 10552 64 l 0 2180" stroke-width="1" stroke="#f1f1f1"/><path d=" M 0 94 h 10652 v 30 h -10652 v -30 M 0 154 h 10652 v 30 h -10652 v -30 M 0 214 h 10652 v 30 h -10652 v -30 M 0 274 h 10652 v 30 h -10652 v -30 M 0 334 h 10652 v 30 h -10652 v -30 M 0 394 h 10652 v 30 h -10652 v -30 M 0 454 h 10652 v 30 h -10652 v -30 M 0 514 h 10652 v 30 h -10652 v -30 M 0 574 h 10652 v 30 h -10652 v -30 M 0 634 h 10652 v 30 h -10652 v -30 M 0 694 h 10652 v 30 h -10652 v -30 M 0 754 h 10652 v 30 h -10652 v -30 M 0 814 h 10652 v 30 h -10652 v -30 M 0 874 h 10652 v 30 h -10652 v -30 M 0 934 h 10652 v 30 h -10652 v -30 M 0 994 h 10652 v 30 h -10652 v -30 M 0 1054 h 10652 v 30 h -10652 v -30 M 0 1114 h 10652 v 30 h -10652 v -30 M 0 1174 h 10652 v 30 h -10652 v -30 M 0 1234 h 10652 v 30 h -10652 v -30 M 0 1294 h 10652 v 30 h -10652 v -30 M 0 1354 h 10652 v 30 h -10652 v -30 M 0 1414 h 10652 v 30 h -10652 v -30 M 0 1474 h 10652 v 30 h -10652 v -30 M 0 1534 h 10652 v 30 h -10652 v -30 M 0 1594 h 10652 v 30 h -10652 v -30 M 0 1654 h 10652 v 30 h -10652 v -30 M 0 1714 h 10652 v 30 h -10652 v -30 M 0 1774 h 10652 v 30 h -10652 v -30 M 0 1834 h 10652 v 30 h -10652 v -30 M 0 1894 h 10652 v 30 h -10652 v -30 M 0 1954 h 10652 v 30 h -10652 v -30 M 0 2014 h 10652 v 30 h -10652 v -30 M 0 2074 h 10652 v 30 h -10652 v -30 M 0 2134 h 10652 v 30 h -10652 v -30" fill="#eee" opacity="0.4"/><rect x="0" y="40" height="24" width="100%" fill="#f5f5f5"></rect><path d="M 0 64 l 10652 0 M 542 64 l 0 2180  M 542 40 l 0 24 M 619 40 l 0 24 M 696 40 l 0 24 M 773 40 l 0 24 M 850 40 l 0 24 M 927 40 l 0 24 M 1004 40 l 0 24 M 1081 40 l 0 24 M 1158 40 l 0 24 M 1235 40 l 0 24 M 1312 40 l 0 24 M 1389 40 l 0 24 M 1466 40 l 0 24 M 1543 40 l 0 24 M 1620 40 l 0 24 M 1697 40 l 0 24 M 1774 40 l 0 24 M 1851 40 l 0 24 M 1928 40 l 0 24 M 2005 40 l 0 24 M 2082 40 l 0 24 M 2159 40 l 0 24 M 2236 40 l 0 24 M 2313 40 l 0 24 M 2390 40 l 0 24 M 2467 40 l 0 24 M 2544 40 l 0 24 M 2621 40 l 0 24 M 2698 40 l 0 24 M 2775 40 l 0 24 M 2852 40 l 0 24 M 2929 40 l 0 24 M 3006 40 l 0 24 M 3083 40 l 0 24 M 3160 40 l 0 24 M 3237 40 l 0 24 M 3314 40 l 0 24 M 3391 40 l 0 24 M 3468 40 l 0 24 M 3545 40 l 0 24 M 3622 40 l 0 24 M 3699 40 l 0 24 M 3776 40 l 0 24 M 3853 40 l 0 24 M 3930 40 l 0 24 M 4007 40 l 0 24 M 4084 40 l 0 24 M 4161 40 l 0 24 M 4238 40 l 0 24 M 4315 40 l 0 24 M 4392 40 l 0 24 M 4469 40 l 0 24 M 4546 40 l 0 24 M 4623 40 l 0 24 M 4700 40 l 0 24 M 4777 40 l 0 24 M 4854 40 l 0 24 M 4931 40 l 0 24 M 5008 40 l 0 24 M 5085 40 l 0 24 M 5162 40 l 0 24 M 5239 40 l 0 24 M 5316 40 l 0 24 M 5393 40 l 0 24 M 5470 40 l 0 24 M 5547 40 l 0 24 M 5624 40 l 0 24 M 5701 40 l 0 24 M 5778 40 l 0 24 M 5855 40 l 0 24 M 5932 40 l 0 24 M 6009 40 l 0 24 M 6086 40 l 0 24 M 6163 40 l 0 24 M 6240 40 l 0 24 M 6317 40 l 0 24 M 6394 40 l 0 24 M 6471 40 l 0 24 M 6548 40 l 0 24 M 6625 40 l 0 24 M 6702 40 l 0 24 M 6779 40 l 0 24 M 6856 40 l 0 24 M 6933 40 l 0 24 M 7010 40 l 0 24 M 7087 40 l 0 24 M 7164 40 l 0 24 M 7241 40 l 0 24 M 7318 40 l 0 24 M 7395 40 l 0 24 M 7472 40 l 0 24 M 7549 40 l 0 24 M 7626 40 l 0 24 M 7703 40 l 0 24 M 7780 40 l 0 24 M 7857 40 l 0 24 M 7934 40 l 0 24 M 8011 40 l 0 24 M 8088 40 l 0 24 M 8165 40 l 0 24 M 8242 40 l 0 24 M 8319 40 l 0 24 M 8396 40 l 0 24 M 8473 40 l 0 24 M 8550 40 l 0 24 M 8627 40 l 0 24 M 8704 40 l 0 24 M 8781 40 l 0 24 M 8858 40 l 0 24 M 8935 40 l 0 24 M 9012 40 l 0 24 M 9089 40 l 0 24 M 9166 40 l 0 24 M 9243 40 l 0 24 M 9320 40 l 0 24 M 9397 40 l 0 24 M 9474 40 l 0 24 M 9551 40 l 0 24 M 9628 40 l 0 24 M 9705 40 l 0 24 M 9782 40 l 0 24 M 9859 40 l 0 24 M 9936 40 l 0 24 M 10013 40 l 0 24 M 10090 40 l 0 24 M 10167 40 l 0 24 M 10244 40 l 0 24 M 10321 40 l 0 24 M 10398 40 l 0 24 M 10475 40 l 0 24 M 10552 40 l 0 24" stroke-width="1" stroke="#c1cbc9"/><g fill="#333333" font-size="12" font-weight="bold"><text x="10" y="56">Task</text><text x="537" text-anchor="end"  y="56">Hours</text><text x="580.500000" y="56" style="text-anchor: middle">Nov 1</text><text x="657.500000" y="56" style="text-anchor: middle">Nov 4</text><text x="734.500000" y="56" style="text-anchor: middle">Nov 5</text><text x="811.500000" y="56" style="text-anchor: middle">Nov 6</text><text x="888.500000" y="56" style="text-anchor: middle">Nov 7</text><text x="965.500000" y="56" style="text-anchor: middle">Nov 8</text><text x="1042.500000" y="56" style="text-anchor: middle">Nov 11</text><text x="1119.500000" y="56" style="text-anchor: middle">Nov 12</text><text x="1196.500000" y="56" style="text-anchor: middle">Nov 13</text><text x="1273.500000" y="56" style="text-anchor: middle">Nov 14</text><text x="1350.500000" y="56" style="text-anchor: middle">Nov 15</text><text x="1427.500000" y="56" style="text-anchor: middle">Nov 18</text><text x="1504.500000" y="56" style="text-anchor: middle">Nov 19</text><text x="1581.500000" y="56" style="text-anchor: middle">Nov 20</text><text x="1658.500000" y="56" style="text-anchor: middle">Nov 21</text><text x="1735.500000" y="56" style="text-anchor: middle">Nov 22</text><text x="1812.500000" y="56" style="text-anchor: middle">Nov 25</text><text x="1889.500000" y="56" style="text-anchor: middle">Nov 26</text><text x="1966.500000" y="56" style="text-anchor: middle">Nov 27</text><text x="2043.500000" y="56" style="text-anchor: middle">Nov 28</text><text x="2120.500000" y="56" style="text-anchor: middle">Nov 29</text><text x="2197.500000" y="56" style="text-anchor: middle">Dec 2</text><text x="2274.500000" y="56" style="text-anchor: middle">Dec 3</text><text x="2351.500000" y="56" style="text-anchor: middle">Dec 4</text><text x="2428.500000" y="56" style="text-anchor: middle">Dec 5</text><text x="2505.500000" y="56" style="text-anchor: middle">Dec 6</text><text x="2582.500000" y="56" style="text-anchor: middle">Dec 9</text><text x="2659.500000" y="56" style="text-anchor: middle">Dec 10</text><text x="2736.500000" y="56" style="text-anchor: middle">Dec 11</text><text x="2813.500000" y="56" style="text-anchor: middle">Dec 12</text><text x="2890.500000" y="56" style="text-anchor: middle">Dec 13</text><text x="2967.500000" y="56" style="text-anchor: middle">Dec 16</text><text x="3044.500000" y="56" style="text-anchor: middle">Dec 17</text><text x="3121.500000" y="56" style="text-anchor: middle">Dec 18</text><text x="3198.500000" y="56" style="text-anchor: middle">Dec 19</text><text x="3275.500000" y="56" style="text-anchor: middle">Dec 20</text><text x="3352.500000" y="56" style="text-anchor: middle">Dec 23</text><text x="3429.500000" y="56" style="text-anchor: middle">Dec 24</text><text x="3506.500000" y="56" style="text-anchor: middle">Dec 25</text><text x="3583.500000" y="56" style="text-anchor: middle">Dec 26</text><text x="3660.500000" y="56" style="text-anchor: middle">Dec 27</text><text x="3737.500000" y="56" style="text-anchor: middle">Dec 30</text><text x="3814.500000" y="56" style="text-anchor: middle">Dec 31</text><text x="3891.500000" y="56" style="text-anchor: middle">Jan 1</text><text x="3968.500000" y="56" style="text-anchor: middle">Jan 2</text><text x="4045.500000" y="56" style="text-anchor: middle">Jan 3</text><text x="4122.500000" y="56" style="text-anchor: middle">Jan 6</text><text x="4199.500000" y="56" style="text-anchor: middle">Jan 7</text><text x="4276.500000" y="56" style="text-anchor: middle">Jan 8</text><text x="4353.500000" y="56" style="text-anchor: middle">Jan 9</text><text x="4430.500000" y="56" style="text-anchor: middle">Jan 10</text><text x="4507.500000" y="56" style="text-anchor: middle">Jan 13</text><text x="4584.500000" y="56" style="text-anchor: middle">Jan 14</text><text x="4661.500000" y="56" style="text-anchor: middle">Jan 15</text><text x="4738.500000" y="56" style="text-anchor: middle">Jan 16</text><text x="4815.500000" y="56" style="text-anchor: middle">Jan 17</text><text x="4892.500000" y="56" style="text-anchor: middle">Jan 20</text><text x="4969.500000" y="56" style="text-anchor: middle">Jan 21</text><text x="5046.500000" y="56" style="text-anchor: middle">Jan 22</text><text x="5123.500000" y="56" style="text-anchor: middle">Jan 23</text><text x="5200.500000" y="56" style="text-anchor: middle">Jan 24</text><text x="5277.500000" y="56" style="text-anchor: middle">Jan 27</text><text x="5354.500000" y="56" style="text-anchor: middle">Jan 28</text><text x="5431.500000" y="56" style="text-anchor: middle">Jan 29</text><text x="5508.500000" y="56" style="text-anchor: middle">Jan 30</text><text x="5585.500000" y="56" style="text-anchor: middle">Jan 31</text><text x="5662.500000" y="56" style="text-anchor: middle">Feb 3</text><text x="5739.500000" y="56" style="text-anchor: middle">Feb 4</text><text x="5816.500000" y="56" style="text-anchor: middle">Feb 5</text><text x="5893.500000" y="56" style="text-anchor: middle">Feb 6</text><text x="5970.500000" y="56" style="text-anchor: middle">Feb 7</text><text x="6047.500000" y="56" style="text-anchor: middle">Feb 10</text><text x="6124.500000" y="56" style="text-anchor: middle">Feb 11</text><text x="6201.500000" y="56" style="text-anchor: middle">Feb 12</text><text x="6278.500000" y="56" style="text-anchor: middle">Feb 13</text><text x="6355.500000" y="56" style="text-anchor: middle">Feb 14</text><text x="6432.500000" y="56" style="text-anchor: middle">Feb 17</text><text x="6509.500000" y="56" style="text-anchor: middle">Feb 18</text><text x="6586.500000" y="56" style="text-anchor: middle">Feb 19</text><text x="6663.500000" y="56" style="text-anchor: middle">Feb 20</text><text x="6740.500000" y="56" style="text-anchor: middle">Feb 21</text><text x="6817.500000" y="56" style="text-anchor: middle">Feb 24</text><text x="6894.500000" y="56" style="text-anchor: middle">Feb 25</text><text x="6971.500000" y="56" style="text-anchor: middle">Feb 26</text><text x="7048.500000" y="56" style="text-anchor: middle">Feb 27</text><text x="7125.500000" y="56" style="text-anchor: middle">Feb 28</text><text x="7202.500000" y="56" style="text-anchor: middle">Mar 3</text><text x="7279.500000" y="56" style="text-anchor: middle">Mar 4</text><text x="7356.500000" y="56" style="text-anchor: middle">Mar 5</text><text x="7433.500000" y="56" style="text-anchor: middle">Mar 6</text><text x="7510.500000" y="56" style="text-anchor: middle">Mar 7</text><text x="7587.500000" y="56" style="text-anchor: middle">Mar 10</text><text x="7664.500000" y="56" style="text-anchor: middle">Mar 11</text><text x="7741.500000" y="56" style="text-anchor: middle">Mar 12</text><text x="7818.500000" y="56" style="text-anchor: middle">Mar 13</text><text x="7895.500000" y="56" style="text-anchor: middle">Mar 14</text><text x="7972.500000" y="56" style="text-anchor: middle">Mar 17</text><text x="8049.500000" y="56" style="text-anchor: middle">Mar 18</text><text x="8126.500000" y="56" style="text-anchor: middle">Mar 19</text><text x="8203.500000" y="56" style="text-anchor: middle">Mar 20</text><text x="8280.500000" y="56" style="text-anchor: middle">Mar 21</text><text x="8357.500000" y="56" style="text-anchor: middle">Mar 24</text><text x="8434.500000" y="56" style="text-anchor: middle">Mar 25</text><text x="8511.500000" y="56" style="text-anchor: middle">Mar 26</text><text x="8588.500000" y="56" style="text-anchor: middle">Mar 27</text><text x="8665.500000" y="56" style="text-anchor: middle">Mar 28</text><text x="8742.500000" y="56" style="text-anchor: middle">Mar 31</text><text x="8819.500000" y="56" style="text-anchor: middle">Apr 1</text><text x="8896.500000" y="56" style="text-anchor: middle">Apr 2</text><text x="8973.500000" y="56" style="text-anchor: middle">Apr 3</text><text x="9050.500000" y="56" style="text-anchor: middle">Apr 4</text><text x="9127.500000" y="56" style="text-anchor: middle">Apr 7</text><text x="9204.500000" y="56" style="text-anchor: middle">Apr 8</text><text x="9281.500000" y="56" style="text-anchor: middle">Apr 9</text><text x="9358.500000" y="56" style="text-anchor: middle">Apr 10</text><text x="9435.500000" y="56" style="text-anchor: middle">Apr 11</text><text x="9512.500000" y="56" style="text-anchor: middle">Apr 14</text><text x="9589.500000" y="56" style="text-anchor: middle">Apr 15</text><text x="9666.500000" y="56" style="text-anchor: middle">Apr 16</text><text x="9743.500000" y="56" style="text-anchor: middle">Apr 17</text><text x="9820.500000" y="56" style="text-anchor: middle">Apr 18</text><text x="9897.500000" y="56" style="text-anchor: middle">Apr 21</text><text x="9974.500000" y="56" style="text-anchor: middle">Apr 22</text><text x="10051.500000" y="56" style="text-anchor: middle">Apr 23</text><text x="10128.500000" y="56" style="text-anchor: middle">Apr 24</text><text x="10205.500000" y="56" style="text-anchor: middle">Apr 25</text><text x="10282.500000" y="56" style="text-anchor: middle">Apr 28</text><text x="10359.500000" y="56" style="text-anchor: middle">Apr 29</text><text x="10436.500000" y="56" style="text-anchor: middle">Apr 30</text><text x="10513.500000" y="56" style="text-anchor: middle">May 1</text></g><g fill="#aeb0b3" font-size="12"><text x="10" y="82">1</text><text x="10" y="112">2</text><text x="10" y="142">3</text><text x="10" y="172">4</text><text x="10" y="202">5</text><text x="10" y="232">6</text><text x="10" y="262">7</text><text x="10" y="292">8</text><text x="10" y="322">9</text><text x="10" y="352">10</text><text x="10" y="382">11</text><text x="10" y="412">12</text><text x="10" y="442">13</text><text x="10" y="472">14</text><text x="10" y="502">15</text><text x="10" y="532">16</text><text x="10" y="562">17</text><text x="10" y="592">18</text><text x="10" y="622">19</text><text x="10" y="652">20</text><text x="10" y="682">21</text><text x="10" y="712">22</text><text x="10" y="742">23</text><text x="10" y="772">24</text><text x="10" y="802">25</text><text x="10" y="832">26</text><text x="10" y="862">27</text><text x="10" y="892">28</text><text x="10" y="922">29</text><text x="10" y="952">30</text><text x="10" y="982">31</text><text x="10" y="1012">32</text><text x="10" y="1042">33</text><text x="10" y="1072">34</text><text x="10" y="1102">35</text><text x="10" y="1132">36</text><text x="10" y="1162">37</text><text x="10" y="1192">38</text><text x="10" y="1222">39</text><text x="10" y="1252">40</text><text x="10" y="1282">41</text><text x="10" y="1312">42</text><text x="10" y="1342">43</text><text x="10" y="1372">44</text><text x="10" y="1402">45</text><text x="10" y="1432">46</text><text x="10" y="1462">47</text><text x="10" y="1492">48</text><text x="10" y="1522">49</text><text x="10" y="1552">50</text><text x="10" y="1582">51</text><text x="10" y="1612">52</text><text x="10" y="1642">53</text><text x="10" y="1672">54</text><text x="10" y="1702">55</text><text x="10" y="1732">56</text><text x="10" y="1762">57</text><text x="10" y="1792">58</text><text x="10" y="1822">59</text><text x="10" y="1852">60</text><text x="10" y="1882">61</text><text x="10" y="1912">62</text><text x="10" y="1942">63</text><text x="10" y="1972">64</text><text x="10" y="2002">65</text><text x="10" y="2032">66</text><text x="10" y="2062">67</text><text x="10" y="2092">68</text><text x="10" y="2122">69</text></g><g stroke-dasharray="3" stroke-width="1" stroke="#c1c2c3"><path d="M 50 112 l 0 90" /><path d="M 50 202 l 0 270" /><path d="M 50 472 l 0 90" /><path d="M 35 82 l 0 480" /><path d="M 50 592 l 0 90" /><path d="M 50 682 l 0 90" /><path d="M 50 772 l 0 330" /><path d="M 50 1102 l 0 90" /><path d="M 35 562 l 0 630" /><path d="M 50 1222 l 0 150" /><path d="M 50 1372 l 0 150" /><path d="M 50 1522 l 0 120" /><path d="M 35 1192 l 0 480" /><path d="M 50 1702 l 0 90" /><path d="M 50 1792 l 0 90" /><path d="M 35 1672 l 0 210" /><path d="M 35 1882 l 0 120" /><path d="M 35 2002 l 0 150" /></g><g fill="#333333" font-size="14"><text font-size="10" x="30" y="82">▼</text><text x="45" y="84">Подготовка и проектирование</text><text font-size="10" x="45" y="112">▼</text><text x="60" y="114">Разработка тех. задания</text><text x="60" y="144">Основание для разработки (цели и задачи)</text><text x="60" y="174">Проектирование функ. требований</text><text font-size="10" x="45" y="202">▼</text><text x="60" y="204">Проектирование интерфейса пользователя</text><text x="60" y="234">Окна входа и регистрации пользователя</text><text x="60" y="264">Главное окно приложения</text><text x="60" y="294">Окно данных пользователя</text><text x="60" y="324">Элементы отображения рез. поиска</text><text x="60" y="354">Окно деталей об изображений</text><text x="60" y="384">Окно локальных отслеживаемых папок</text><text x="60" y="414">Окно выбора лиц для поиска</text><text x="60" y="444">Окно историй поиска</text><text font-size="10" x="45" y="472">▼</text><text x="60" y="474">Проектирование серверной арх.</text><text x="60" y="504">Определение структуры баз данных</text><text x="60" y="534">Проектирование архитектуры API</text><text font-size="10" x="30" y="562">▼</text><text x="45" y="564">Разработка серверного приложения</text><text font-size="10" x="45" y="592">▼</text><text x="60" y="594">Создание и настройка векторной БД</text><text x="60" y="624">Выбор конкретной технологий</text><text x="60" y="654">Создание БД на основе ранее спроект. арх.</text><text font-size="10" x="45" y="682">▼</text><text x="60" y="684">Создание и настройка реляционной БД</text><text x="60" y="714">Выбор СУБД</text><text x="60" y="744">Создание БД на основе ранее спроект. БД</text><text font-size="10" x="45" y="772">▼</text><text x="60" y="774">Реализация API функций</text><text x="60" y="804">registerUser</text><text x="60" y="834">logIn</text><text x="60" y="864">logOut</text><text x="60" y="894">updatePassword</text><text x="60" y="924">removeDeviceFromNetwork</text><text x="60" y="954">uploadImages</text><text x="60" y="984">searchImagesByText</text><text x="60" y="1014">searchImagesByFace</text><text x="60" y="1044">getDeviceStatus</text><text x="60" y="1074">getImageDetails</text><text font-size="10" x="45" y="1102">▼</text><text x="60" y="1104">Тестирование серверного решения</text><text x="60" y="1134">Тестирование баз данных</text><text x="60" y="1164">Тестирование API функции</text><text font-size="10" x="30" y="1192">▼</text><text x="45" y="1194">Настройка передачи данных пользователей p2p</text><text font-size="10" x="45" y="1222">▼</text><text x="60" y="1224">Проектирование архитектуры передачи данных</text><text x="60" y="1254">Определение протокола передачи данных</text><text x="60" y="1284">Проектирование схемы взаимодействия устройств</text><text x="60" y="1314">Выбор и настройка механизмов шифрования</text><text x="60" y="1344">Проектирование обработки ошибок</text><text font-size="10" x="45" y="1372">▼</text><text x="60" y="1374">Настройка центрального сервера</text><text x="60" y="1404">Поднятие сервера</text><text x="60" y="1434">Настройка API для обмена ICE-кандидатами</text><text x="60" y="1464">Конфигурация HTTPS</text><text x="60" y="1494">Мониторинг и логирование соединений</text><text font-size="10" x="45" y="1522">▼</text><text x="60" y="1524">Реализация p2p передачи данных</text><text x="60" y="1554">Реализация Data Channel</text><text x="60" y="1584">Разработка механизма передачи данных</text><text x="60" y="1614">Интеграция с центральным сервером</text><text x="45" y="1644">Тестирование p2p передачи данных</text><text font-size="10" x="30" y="1672">▼</text><text x="45" y="1674">Разработка клиентского приложения</text><text font-size="10" x="45" y="1702">▼</text><text x="60" y="1704">Реализация клиентской логики</text><text x="60" y="1734">Верстка окон</text><text x="60" y="1764">Реализация взаимодействия с API сервера</text><text font-size="10" x="45" y="1792">▼</text><text x="60" y="1794">Тестирование клиентского приложения</text><text x="60" y="1824">Тестирование графических элементов</text><text x="60" y="1854">Тестирование взаимодействия с сервером</text><text font-size="10" x="30" y="1882">▼</text><text x="45" y="1884">Разработка административной панели</text><text x="45" y="1914">Разработка модуля статистики</text><text x="45" y="1944">Разработка модуля технической поддержки</text><text x="45" y="1974">Разработка функционала управления пользователями</text><text font-size="10" x="30" y="2002">▼</text><text x="45" y="2004">Конечное тестирование и завершение проекта</text><text x="45" y="2034">Разработка тестовых сценариев</text><text x="45" y="2064">Модульное тестирование</text><text x="45" y="2094">Интеграционное тестирование</text><text x="45" y="2124">Приемка и сдача готового продукта</text></g><g font-family="Consolas,monospace" text-anchor="end" fill="#333333" font-size="12"><text x="537" y="143">1d8h</text><text x="537" y="173">3d8h</text><text x="537" y="113">1w7h</text><text x="537" y="233">8h</text><text x="537" y="263">1d8h</text><text x="537" y="293">8h</text><text x="537" y="323">8h</text><text x="537" y="353">8h</text><text x="537" y="383">3h</text><text x="537" y="413">4h</text><text x="537" y="443">8h</text><text x="537" y="203">1w2d1h</text><text x="537" y="503">1d8h</text><text x="537" y="533">1d8h</text><text x="537" y="473">3d7h</text><text x="537" y="83">3w1d6h</text><text x="537" y="623">8h</text><text x="537" y="653">1w3d8h</text><text x="537" y="593">1w4d7h</text><text x="537" y="713">8h</text><text x="537" y="743">1w8h</text><text x="537" y="683">1w1d7h</text><text x="537" y="803">1d8h</text><text x="537" y="833">4h</text><text x="537" y="863">3h</text><text x="537" y="893">8h</text><text x="537" y="923">8h</text><text x="537" y="953">2d8h</text><text x="537" y="983">4d8h</text><text x="537" y="1013">4d8h</text><text x="537" y="1043">8h</text><text x="537" y="1073">8h</text><text x="537" y="773">3w3d8h</text><text x="537" y="1133">2d8h</text><text x="537" y="1163">2d8h</text><text x="537" y="1103">1w7h</text><text x="537" y="563">8w1d2h</text><text x="537" y="1253">2d8h</text><text x="537" y="1283">1d8h</text><text x="537" y="1313">3d8h</text><text x="537" y="1343">8h</text><text x="537" y="1223">1w4d5h</text><text x="537" y="1403">1d8h</text><text x="537" y="1433">2d8h</text><text x="537" y="1463">8h</text><text x="537" y="1493">8h</text><text x="537" y="1373">1w1d5h</text><text x="537" y="1553">2d8h</text><text x="537" y="1583">3d8h</text><text x="537" y="1613">1d8h</text><text x="537" y="1523">1w3d6h</text><text x="537" y="1643">1d8h</text><text x="537" y="1193">5w1d6h</text><text x="537" y="1733">1w1d8h</text><text x="537" y="1763">3d8h</text><text x="537" y="1703">2w7h</text><text x="537" y="1823">1d8h</text><text x="537" y="1853">1d8h</text><text x="537" y="1793">3d7h</text><text x="537" y="1673">2w4d5h</text><text x="537" y="1913">3d8h</text><text x="537" y="1943">8h</text><text x="537" y="1973">8h</text><text x="537" y="1883">1w6h</text><text x="537" y="2033">3d8h</text><text x="537" y="2063">3d8h</text><text x="537" y="2093">4d8h</text><text x="537" y="2123">8h</text><text x="537" y="2003">2w3d5h</text></g><defs><clipPath id="cut-394873"><path d="M 576.222229 117 L 586.222229 109 L 1019.666626 109 L 1029.666626 117 L 1029.666626 101 L 576.222229 101 Z"/></clipPath><clipPath id="cut-394880"><path d="M 1038.222168 207 L 1048.222168 199 L 1635.666626 199 L 1645.666626 207 L 1645.666626 191 L 1038.222168 191 Z"/></clipPath><clipPath id="cut-394892"><path d="M 1654.222290 477 L 1664.222290 469 L 1943.666748 469 L 1953.666748 477 L 1953.666748 461 L 1654.222290 461 Z"/></clipPath><clipPath id="cut-394872"><path d="M 576.222229 87 L 586.222229 79 L 1943.666748 79 L 1953.666748 87 L 1953.666748 71 L 576.222229 71 Z"/></clipPath><clipPath id="cut-394954"><path d="M 2193.222168 597 L 2203.222168 589 L 2944.666504 589 L 2954.666504 597 L 2954.666504 581 L 2193.222168 581 Z"/></clipPath><clipPath id="cut-394955"><path d="M 2963.222168 687 L 2973.222168 679 L 3483.666504 679 L 3493.666504 687 L 3493.666504 671 L 2963.222168 671 Z"/></clipPath><clipPath id="cut-394956"><path d="M 3502.222168 777 L 3512.222168 769 L 5331.666504 769 L 5341.666504 777 L 5341.666504 761 L 3502.222168 761 Z"/></clipPath><clipPath id="cut-394957"><path d="M 5350.222168 1077 L 5360.222168 1069 L 5793.666504 1069 L 5803.666504 1077 L 5803.666504 1061 L 5350.222168 1061 Z"/></clipPath><clipPath id="cut-394888"><path d="M 2193.222168 567 L 2203.222168 559 L 5793.666992 559 L 5803.666992 567 L 5803.666992 551 L 2193.222168 551 Z"/></clipPath><clipPath id="cut-394976"><path d="M 5812.222168 1197 L 5822.222168 1189 L 6563.666504 1189 L 6573.666504 1197 L 6573.666504 1181 L 5812.222168 1181 Z"/></clipPath><clipPath id="cut-394977"><path d="M 6582.222168 1347 L 6592.222168 1339 L 7102.666504 1339 L 7112.666504 1347 L 7112.666504 1331 L 6582.222168 1331 Z"/></clipPath><clipPath id="cut-394978"><path d="M 7121.222168 1497 L 7131.222168 1489 L 7795.666504 1489 L 7805.666504 1497 L 7805.666504 1481 L 7121.222168 1481 Z"/></clipPath><clipPath id="cut-394975"><path d="M 5812.222168 1167 L 5822.222168 1159 L 7949.666992 1159 L 7959.666992 1167 L 7959.666992 1151 L 5812.222168 1151 Z"/></clipPath><clipPath id="cut-394992"><path d="M 7968.222168 1677 L 7978.222168 1669 L 8796.666992 1669 L 8806.666992 1677 L 8806.666992 1661 L 7968.222168 1661 Z"/></clipPath><clipPath id="cut-394993"><path d="M 8815.221680 1767 L 8825.221680 1759 L 9104.666016 1759 L 9114.666016 1767 L 9114.666016 1751 L 8815.221680 1751 Z"/></clipPath><clipPath id="cut-394991"><path d="M 7968.222168 1647 L 7978.222168 1639 L 9104.666992 1639 L 9114.666992 1647 L 9114.666992 1631 L 7968.222168 1631 Z"/></clipPath><clipPath id="cut-394998"><path d="M 9123.221680 1857 L 9133.221680 1849 L 9566.666016 1849 L 9576.666016 1857 L 9576.666016 1841 L 9123.221680 1841 Z"/></clipPath><clipPath id="cut-395002"><path d="M 9585.221680 1977 L 9595.221680 1969 L 10644.666016 1969 L 10654.666016 1977 L 10654.666016 1961 L 9585.221680 1961 Z"/></clipPath></defs><rect x="576.222229" opacity="0.5" y="131" rx="2" ry="2" width="145.444443" height="16" fill="#597ef7" /><rect x="576.222229" y="131" rx="2" ry="2" width="145.444443" height="16" fill="#597ef7" /><rect x="730.222229" opacity="0.5" y="161" rx="2" ry="2" width="299.444427" height="16" fill="#597ef7" /><rect x="730.222229" y="161" rx="2" ry="2" width="299.444427" height="16" fill="#597ef7" /><rect x="576.222229" opacity="0.5" y="101" width="453.444427" height="16" fill="#597ef7" clip-path="url(#cut-394873)" /><rect x="576.222229" y="101" rx="2" ry="2" width="453.444427" height="16" fill="#597ef7" clip-path="url(#cut-394873)" /><rect x="1038.222168" opacity="0.5" y="221" rx="2" ry="2" width="68.444443" height="16" fill="#597ef7" /><rect x="1038.222168" y="221" rx="2" ry="2" width="68.444443" height="16" fill="#597ef7" /><rect x="1115.222168" opacity="0.5" y="251" rx="2" ry="2" width="145.444443" height="16" fill="#597ef7" /><rect x="1115.222168" y="251" rx="2" ry="2" width="145.444443" height="16" fill="#597ef7" /><rect x="1269.222168" opacity="0.5" y="281" rx="2" ry="2" width="68.444443" height="16" fill="#597ef7" /><rect x="1269.222168" y="281" rx="2" ry="2" width="68.444443" height="16" fill="#597ef7" /><rect x="1346.222168" opacity="0.5" y="311" rx="2" ry="2" width="68.444443" height="16" fill="#597ef7" /><rect x="1346.222168" y="311" rx="2" ry="2" width="68.444443" height="16" fill="#597ef7" /><rect x="1423.222168" opacity="0.5" y="341" rx="2" ry="2" width="68.444443" height="16" fill="#597ef7" /><rect x="1423.222168" y="341" rx="2" ry="2" width="68.444443" height="16" fill="#597ef7" /><rect x="1500.222168" opacity="0.5" y="371" rx="2" ry="2" width="25.666668" height="16" fill="#597ef7" /><rect x="1500.222168" y="371" rx="2" ry="2" width="25.666668" height="16" fill="#597ef7" /><rect x="1525.888916" opacity="0.5" y="401" rx="2" ry="2" width="34.222221" height="16" fill="#597ef7" /><rect x="1525.888916" y="401" rx="2" ry="2" width="34.222221" height="16" fill="#597ef7" /><rect x="1577.222290" opacity="0.5" y="431" rx="2" ry="2" width="68.444443" height="16" fill="#597ef7" /><rect x="1577.222290" y="431" rx="2" ry="2" width="68.444443" height="16" fill="#597ef7" /><rect x="1038.222168" opacity="0.5" y="191" width="607.444458" height="16" fill="#597ef7" clip-path="url(#cut-394880)" /><rect x="1038.222168" y="191" rx="2" ry="2" width="607.444458" height="16" fill="#597ef7" clip-path="url(#cut-394880)" /><rect x="1654.222290" opacity="0.5" y="491" rx="2" ry="2" width="145.444443" height="16" fill="#597ef7" /><rect x="1654.222290" y="491" rx="2" ry="2" width="145.444443" height="16" fill="#597ef7" /><rect x="1808.222290" opacity="0.5" y="521" rx="2" ry="2" width="145.444443" height="16" fill="#597ef7" /><rect x="1808.222290" y="521" rx="2" ry="2" width="145.444443" height="16" fill="#597ef7" /><rect x="1654.222290" opacity="0.5" y="461" width="299.444427" height="16" fill="#597ef7" clip-path="url(#cut-394892)" /><rect x="1654.222290" y="461" rx="2" ry="2" width="299.444427" height="16" fill="#597ef7" clip-path="url(#cut-394892)" /><rect x="576.222229" opacity="0.5" y="71" width="1377.444458" height="16" fill="#597ef7" clip-path="url(#cut-394872)" /><rect x="576.222229" y="71" rx="2" ry="2" width="1377.444580" height="16" fill="#597ef7" clip-path="url(#cut-394872)" /><rect x="2193.222168" opacity="0.5" y="611" rx="2" ry="2" width="68.444443" height="16" fill="#597ef7" /><rect x="2193.222168" y="611" rx="2" ry="2" width="0.000000" height="16" fill="#597ef7" /><rect x="2270.222168" opacity="0.5" y="641" rx="2" ry="2" width="684.444458" height="16" fill="#597ef7" /><rect x="2270.222168" y="641" rx="2" ry="2" width="0.000000" height="16" fill="#597ef7" /><rect x="2193.222168" opacity="0.5" y="581" width="761.444458" height="16" fill="#597ef7" clip-path="url(#cut-394954)" /><rect x="2193.222168" y="581" rx="2" ry="2" width="0.000000" height="16" fill="#597ef7" clip-path="url(#cut-394954)" /><rect x="2963.222168" opacity="0.5" y="701" rx="2" ry="2" width="68.444443" height="16" fill="#597ef7" /><rect x="2963.222168" y="701" rx="2" ry="2" width="0.000000" height="16" fill="#597ef7" /><rect x="3040.222168" opacity="0.5" y="731" rx="2" ry="2" width="453.444427" height="16" fill="#597ef7" /><rect x="3040.222168" y="731" rx="2" ry="2" width="0.000000" height="16" fill="#597ef7" /><rect x="2963.222168" opacity="0.5" y="671" width="530.444458" height="16" fill="#597ef7" clip-path="url(#cut-394955)" /><rect x="2963.222168" y="671" rx="2" ry="2" width="0.000000" height="16" fill="#597ef7" clip-path="url(#cut-394955)" /><rect x="3502.222168" opacity="0.5" y="791" rx="2" ry="2" width="145.444443" height="16" fill="#597ef7" /><rect x="3502.222168" y="791" rx="2" ry="2" width="0.000000" height="16" fill="#597ef7" /><rect x="3656.222168" opacity="0.5" y="821" rx="2" ry="2" width="34.222221" height="16" fill="#597ef7" /><rect x="3656.222168" y="821" rx="2" ry="2" width="0.000000" height="16" fill="#597ef7" /><rect x="3733.222168" opacity="0.5" y="851" rx="2" ry="2" width="68.444443" height="16" fill="#597ef7" /><rect x="3733.222168" y="851" rx="2" ry="2" width="0.000000" height="16" fill="#597ef7" /><rect x="4118.222168" opacity="0.5" y="881" rx="2" ry="2" width="68.444443" height="16" fill="#597ef7" /><rect x="4118.222168" y="881" rx="2" ry="2" width="0.000000" height="16" fill="#597ef7" /><rect x="4195.222168" opacity="0.5" y="911" rx="2" ry="2" width="222.444443" height="16" fill="#597ef7" /><rect x="4195.222168" y="911" rx="2" ry="2" width="0.000000" height="16" fill="#597ef7" /><rect x="4426.222168" opacity="0.5" y="941" rx="2" ry="2" width="376.444427" height="16" fill="#597ef7" /><rect x="4426.222168" y="941" rx="2" ry="2" width="0.000000" height="16" fill="#597ef7" /><rect x="4811.222168" opacity="0.5" y="971" rx="2" ry="2" width="376.444427" height="16" fill="#597ef7" /><rect x="4811.222168" y="971" rx="2" ry="2" width="0.000000" height="16" fill="#597ef7" /><rect x="5196.222168" opacity="0.5" y="1001" rx="2" ry="2" width="68.444443" height="16" fill="#597ef7" /><rect x="5196.222168" y="1001" rx="2" ry="2" width="0.000000" height="16" fill="#597ef7" /><rect x="5273.222168" opacity="0.5" y="1031" rx="2" ry="2" width="68.444443" height="16" fill="#597ef7" /><rect x="5273.222168" y="1031" rx="2" ry="2" width="0.000000" height="16" fill="#597ef7" /><rect x="3502.222168" opacity="0.5" y="761" width="1839.444458" height="16" fill="#597ef7" clip-path="url(#cut-394956)" /><rect x="3502.222168" y="761" rx="2" ry="2" width="0.000000" height="16" fill="#597ef7" clip-path="url(#cut-394956)" /><rect x="5350.222168" opacity="0.5" y="1091" rx="2" ry="2" width="222.444443" height="16" fill="#597ef7" /><rect x="5350.222168" y="1091" rx="2" ry="2" width="0.000000" height="16" fill="#597ef7" /><rect x="5581.222168" opacity="0.5" y="1121" rx="2" ry="2" width="222.444443" height="16" fill="#597ef7" /><rect x="5581.222168" y="1121" rx="2" ry="2" width="0.000000" height="16" fill="#597ef7" /><rect x="5350.222168" opacity="0.5" y="1061" width="453.444427" height="16" fill="#597ef7" clip-path="url(#cut-394957)" /><rect x="5350.222168" y="1061" rx="2" ry="2" width="0.000000" height="16" fill="#597ef7" clip-path="url(#cut-394957)" /><rect x="2193.222168" opacity="0.5" y="551" width="3610.444580" height="16" fill="#597ef7" clip-path="url(#cut-394888)" /><rect x="2193.222168" y="551" rx="2" ry="2" width="0.000000" height="16" fill="#597ef7" clip-path="url(#cut-394888)" /><rect x="5812.222168" opacity="0.5" y="1211" rx="2" ry="2" width="222.444443" height="16" fill="#597ef7" /><rect x="5812.222168" y="1211" rx="2" ry="2" width="0.000000" height="16" fill="#597ef7" /><rect x="6043.222168" opacity="0.5" y="1241" rx="2" ry="2" width="145.444443" height="16" fill="#597ef7" /><rect x="6043.222168" y="1241" rx="2" ry="2" width="0.000000" height="16" fill="#597ef7" /><rect x="6197.222168" opacity="0.5" y="1271" rx="2" ry="2" width="299.444427" height="16" fill="#597ef7" /><rect x="6197.222168" y="1271" rx="2" ry="2" width="0.000000" height="16" fill="#597ef7" /><rect x="6505.222168" opacity="0.5" y="1301" rx="2" ry="2" width="68.444443" height="16" fill="#597ef7" /><rect x="6505.222168" y="1301" rx="2" ry="2" width="0.000000" height="16" fill="#597ef7" /><rect x="5812.222168" opacity="0.5" y="1181" width="761.444458" height="16" fill="#597ef7" clip-path="url(#cut-394976)" /><rect x="5812.222168" y="1181" rx="2" ry="2" width="0.000000" height="16" fill="#597ef7" clip-path="url(#cut-394976)" /><rect x="6582.222168" opacity="0.5" y="1361" rx="2" ry="2" width="145.444443" height="16" fill="#597ef7" /><rect x="6582.222168" y="1361" rx="2" ry="2" width="0.000000" height="16" fill="#597ef7" /><rect x="6736.222168" opacity="0.5" y="1391" rx="2" ry="2" width="222.444443" height="16" fill="#597ef7" /><rect x="6736.222168" y="1391" rx="2" ry="2" width="0.000000" height="16" fill="#597ef7" /><rect x="6967.222168" opacity="0.5" y="1421" rx="2" ry="2" width="68.444443" height="16" fill="#597ef7" /><rect x="6967.222168" y="1421" rx="2" ry="2" width="0.000000" height="16" fill="#597ef7" /><rect x="7044.222168" opacity="0.5" y="1451" rx="2" ry="2" width="68.444443" height="16" fill="#597ef7" /><rect x="7044.222168" y="1451" rx="2" ry="2" width="0.000000" height="16" fill="#597ef7" /><rect x="6582.222168" opacity="0.5" y="1331" width="530.444458" height="16" fill="#597ef7" clip-path="url(#cut-394977)" /><rect x="6582.222168" y="1331" rx="2" ry="2" width="0.000000" height="16" fill="#597ef7" clip-path="url(#cut-394977)" /><rect x="7121.222168" opacity="0.5" y="1511" rx="2" ry="2" width="222.444443" height="16" fill="#597ef7" /><rect x="7121.222168" y="1511" rx="2" ry="2" width="0.000000" height="16" fill="#597ef7" /><rect x="7352.222168" opacity="0.5" y="1541" rx="2" ry="2" width="299.444427" height="16" fill="#597ef7" /><rect x="7352.222168" y="1541" rx="2" ry="2" width="0.000000" height="16" fill="#597ef7" /><rect x="7660.222168" opacity="0.5" y="1571" rx="2" ry="2" width="145.444443" height="16" fill="#597ef7" /><rect x="7660.222168" y="1571" rx="2" ry="2" width="0.000000" height="16" fill="#597ef7" /><rect x="7121.222168" opacity="0.5" y="1481" width="684.444458" height="16" fill="#597ef7" clip-path="url(#cut-394978)" /><rect x="7121.222168" y="1481" rx="2" ry="2" width="0.000000" height="16" fill="#597ef7" clip-path="url(#cut-394978)" /><rect x="7814.222168" opacity="0.5" y="1601" rx="2" ry="2" width="145.444443" height="16" fill="#597ef7" /><rect x="7814.222168" y="1601" rx="2" ry="2" width="0.000000" height="16" fill="#597ef7" /><rect x="5812.222168" opacity="0.5" y="1151" width="2147.444580" height="16" fill="#597ef7" clip-path="url(#cut-394975)" /><rect x="5812.222168" y="1151" rx="2" ry="2" width="0.000000" height="16" fill="#597ef7" clip-path="url(#cut-394975)" /><rect x="7968.222168" opacity="0.5" y="1691" rx="2" ry="2" width="530.444458" height="16" fill="#597ef7" /><rect x="7968.222168" y="1691" rx="2" ry="2" width="0.000000" height="16" fill="#597ef7" /><rect x="8507.222656" opacity="0.5" y="1721" rx="2" ry="2" width="299.444427" height="16" fill="#597ef7" /><rect x="8507.222656" y="1721" rx="2" ry="2" width="0.000000" height="16" fill="#597ef7" /><rect x="7968.222168" opacity="0.5" y="1661" width="838.444458" height="16" fill="#597ef7" clip-path="url(#cut-394992)" /><rect x="7968.222168" y="1661" rx="2" ry="2" width="0.000000" height="16" fill="#597ef7" clip-path="url(#cut-394992)" /><rect x="8815.221680" opacity="0.5" y="1781" rx="2" ry="2" width="145.444443" height="16" fill="#597ef7" /><rect x="8815.221680" y="1781" rx="2" ry="2" width="0.000000" height="16" fill="#597ef7" /><rect x="8969.221680" opacity="0.5" y="1811" rx="2" ry="2" width="145.444443" height="16" fill="#597ef7" /><rect x="8969.221680" y="1811" rx="2" ry="2" width="0.000000" height="16" fill="#597ef7" /><rect x="8815.221680" opacity="0.5" y="1751" width="299.444427" height="16" fill="#597ef7" clip-path="url(#cut-394993)" /><rect x="8815.221680" y="1751" rx="2" ry="2" width="0.000000" height="16" fill="#597ef7" clip-path="url(#cut-394993)" /><rect x="7968.222168" opacity="0.5" y="1631" width="1146.444458" height="16" fill="#597ef7" clip-path="url(#cut-394991)" /><rect x="7968.222168" y="1631" rx="2" ry="2" width="0.000000" height="16" fill="#597ef7" clip-path="url(#cut-394991)" /><rect x="9123.221680" opacity="0.5" y="1871" rx="2" ry="2" width="299.444427" height="16" fill="#597ef7" /><rect x="9123.221680" y="1871" rx="2" ry="2" width="0.000000" height="16" fill="#597ef7" /><rect x="9431.221680" opacity="0.5" y="1901" rx="2" ry="2" width="68.444443" height="16" fill="#597ef7" /><rect x="9431.221680" y="1901" rx="2" ry="2" width="0.000000" height="16" fill="#597ef7" /><rect x="9508.221680" opacity="0.5" y="1931" rx="2" ry="2" width="68.444443" height="16" fill="#597ef7" /><rect x="9508.221680" y="1931" rx="2" ry="2" width="0.000000" height="16" fill="#597ef7" /><rect x="9123.221680" opacity="0.5" y="1841" width="453.444427" height="16" fill="#597ef7" clip-path="url(#cut-394998)" /><rect x="9123.221680" y="1841" rx="2" ry="2" width="0.000000" height="16" fill="#597ef7" clip-path="url(#cut-394998)" /><rect x="9585.221680" opacity="0.5" y="1991" rx="2" ry="2" width="299.444427" height="16" fill="#597ef7" /><rect x="9585.221680" y="1991" rx="2" ry="2" width="0.000000" height="16" fill="#597ef7" /><rect x="9893.221680" opacity="0.5" y="2021" rx="2" ry="2" width="299.444427" height="16" fill="#597ef7" /><rect x="9893.221680" y="2021" rx="2" ry="2" width="0.000000" height="16" fill="#597ef7" /><rect x="10201.221680" opacity="0.5" y="2051" rx="2" ry="2" width="376.444427" height="16" fill="#597ef7" /><rect x="10201.221680" y="2051" rx="2" ry="2" width="0.000000" height="16" fill="#597ef7" /><rect x="9585.221680" opacity="0.5" y="1961" width="1069.444458" height="16" fill="#597ef7" clip-path="url(#cut-395002)" /><rect x="9585.221680" y="1961" rx="2" ry="2" width="0.000000" height="16" fill="#597ef7" clip-path="url(#cut-395002)" /><g opacity="0.5" font-size="12"><text x="643.944458" fill="#eeeeee" y="143">100%</text><text x="874.944458" fill="#eeeeee" y="173">100%</text><text x="797.944458" fill="#333333" y="113">100%</text><text x="1067.444336" fill="#eeeeee" y="233">100%</text><text x="1182.944336" fill="#eeeeee" y="263">100%</text><text x="1298.444336" fill="#eeeeee" y="293">100%</text><text x="1375.444336" fill="#eeeeee" y="323">100%</text><text x="1452.444336" fill="#eeeeee" y="353">100%</text><text x="1508.055542" fill="#333333" y="383">100%</text><text x="1538.000000" fill="#333333" y="413">100%</text><text x="1606.444458" fill="#eeeeee" y="443">100%</text><text x="1336.944336" fill="#333333" y="203">100%</text><text x="1721.944458" fill="#eeeeee" y="503">100%</text><text x="1875.944458" fill="#eeeeee" y="533">100%</text><text x="1798.944458" fill="#333333" y="473">100%</text><text x="1259.944458" fill="#333333" y="83">100%</text><text x="2222.444336" fill="#333333" y="623">0%</text><text x="2607.444336" fill="#333333" y="653">0%</text><text x="2568.944336" fill="#333333" y="593">0%</text><text x="2992.444336" fill="#333333" y="713">0%</text><text x="3261.944336" fill="#333333" y="743">0%</text><text x="3223.444336" fill="#333333" y="683">0%</text><text x="3569.944336" fill="#333333" y="803">0%</text><text x="3668.333252" fill="#333333" y="833">0%</text><text x="3762.444336" fill="#333333" y="863">0%</text><text x="4147.444336" fill="#333333" y="893">0%</text><text x="4301.444336" fill="#333333" y="923">0%</text><text x="4609.444336" fill="#333333" y="953">0%</text><text x="4994.444336" fill="#333333" y="983">0%</text><text x="5225.444336" fill="#333333" y="1013">0%</text><text x="5302.444336" fill="#333333" y="1043">0%</text><text x="4416.944336" fill="#333333" y="773">0%</text><text x="5456.444336" fill="#333333" y="1103">0%</text><text x="5687.444336" fill="#333333" y="1133">0%</text><text x="5571.944336" fill="#333333" y="1073">0%</text><text x="3993.444336" fill="#333333" y="563">0%</text><text x="5918.444336" fill="#333333" y="1223">0%</text><text x="6110.944336" fill="#333333" y="1253">0%</text><text x="6341.944336" fill="#333333" y="1283">0%</text><text x="6534.444336" fill="#333333" y="1313">0%</text><text x="6187.944336" fill="#333333" y="1193">0%</text><text x="6649.944336" fill="#333333" y="1373">0%</text><text x="6842.444336" fill="#333333" y="1403">0%</text><text x="6996.444336" fill="#333333" y="1433">0%</text><text x="7073.444336" fill="#333333" y="1463">0%</text><text x="6842.444336" fill="#333333" y="1343">0%</text><text x="7227.444336" fill="#333333" y="1523">0%</text><text x="7496.944336" fill="#333333" y="1553">0%</text><text x="7727.944336" fill="#333333" y="1583">0%</text><text x="7458.444336" fill="#333333" y="1493">0%</text><text x="7881.944336" fill="#333333" y="1613">0%</text><text x="6880.944336" fill="#333333" y="1163">0%</text><text x="8228.444336" fill="#333333" y="1703">0%</text><text x="8651.945312" fill="#333333" y="1733">0%</text><text x="8382.444336" fill="#333333" y="1673">0%</text><text x="8882.944336" fill="#333333" y="1793">0%</text><text x="9036.944336" fill="#333333" y="1823">0%</text><text x="8959.944336" fill="#333333" y="1763">0%</text><text x="8536.444336" fill="#333333" y="1643">0%</text><text x="9267.944336" fill="#333333" y="1883">0%</text><text x="9460.444336" fill="#333333" y="1913">0%</text><text x="9537.444336" fill="#333333" y="1943">0%</text><text x="9344.944336" fill="#333333" y="1853">0%</text><text x="9729.944336" fill="#333333" y="2003">0%</text><text x="10037.944336" fill="#333333" y="2033">0%</text><text x="10384.444336" fill="#333333" y="2063">0%</text><text x="10114.944336" fill="#333333" y="1973">0%</text></g><g fill="#333333" font-size="14"><text x="724.666687" y="144"></text><text x="1032.666626" y="174"></text><text x="1032.666626" y="114"></text><text x="1109.666626" y="234"></text><text x="1263.666626" y="264"></text><text x="1340.666626" y="294"></text><text x="1417.666626" y="324"></text><text x="1494.666626" y="354"></text><text x="1528.888794" y="384"></text><text x="1563.111084" y="414"></text><text x="1648.666748" y="444"></text><text x="1648.666626" y="204"></text><text x="1802.666748" y="504"></text><text x="1956.666748" y="534"></text><text x="1956.666748" y="474"></text><text x="1956.666748" y="84"></text><text x="2264.666504" y="624"></text><text x="2957.666504" y="654"></text><text x="2957.666504" y="594"></text><text x="3034.666504" y="714"></text><text x="3496.666504" y="744"></text><text x="3496.666504" y="684"></text><text x="3650.666504" y="804"></text><text x="3693.444336" y="834"></text><text x="3804.666504" y="864"></text><text x="4189.666504" y="894"></text><text x="4420.666504" y="924"></text><text x="4805.666504" y="954"></text><text x="5190.666504" y="984"></text><text x="5267.666504" y="1014"></text><text x="5344.666504" y="1044"></text><text x="5344.666504" y="774"></text><text x="5575.666504" y="1104"></text><text x="5806.666504" y="1134"></text><text x="5806.666504" y="1074"></text><text x="5806.666992" y="564"></text><text x="6037.666504" y="1224"></text><text x="6191.666504" y="1254"></text><text x="6499.666504" y="1284"></text><text x="6576.666504" y="1314"></text><text x="6576.666504" y="1194"></text><text x="6730.666504" y="1374"></text><text x="6961.666504" y="1404"></text><text x="7038.666504" y="1434"></text><text x="7115.666504" y="1464"></text><text x="7115.666504" y="1344"></text><text x="7346.666504" y="1524"></text><text x="7654.666504" y="1554"></text><text x="7808.666504" y="1584"></text><text x="7808.666504" y="1494"></text><text x="7962.666504" y="1614"></text><text x="7962.666992" y="1164"></text><text x="8501.666992" y="1704"></text><text x="8809.666992" y="1734"></text><text x="8809.666992" y="1674"></text><text x="8963.666016" y="1794"></text><text x="9117.666016" y="1824"></text><text x="9117.666016" y="1764"></text><text x="9117.666992" y="1644"></text><text x="9425.666016" y="1884"></text><text x="9502.666016" y="1914"></text><text x="9579.666016" y="1944"></text><text x="9579.666016" y="1854"></text><text x="9887.666016" y="2004"></text><text x="10195.666016" y="2034"></text><text x="10580.666016" y="2064"></text><text x="10657.666016" y="1974"></text></g><rect x="0" y="2134" width="100%" height="110" fill="#dee1e6"/><path d="M 2663 2134 l 0 30 M 5326 2134 l 0 30 M 7989 2134 l 0 30" stroke-width="1" stroke="#c1c2c3"/><g fill="#333" font-size="12"><text x="10" y="2154">Task 69</text><text x="2673" y="2154">Hours 1054</text><text x="5336" y="2154">Duration 2024-11-01 ~ 2025-05-02</text><text x="7999" y="2154">Progress 14.23%</text></g><path d="M 0 2164 l 10652 0" stroke-width="1" stroke="#c1c2c3"/><rect x="5246" y="2172" rx="2" ry="2" width="40" height="16" fill="#597ef7"/><text x="5266" y="2204" style="text-anchor: middle;"  fill="#555555" font-size="12">General</text><rect x="5326" y="2172" rx="2" ry="2" width="40" height="16" fill="#e754a0"/><text x="5346" y="2204" style="text-anchor: middle;"  fill="#555555" font-size="12">Important</text><path d="M 0 2214 l 10652 0" stroke-width="1" stroke="#c1c2c3"/><path transform="translate(5186, 2219)" fill="#999999" opacity="0.5"
          d="M7.40506361,9.49133456 C7.58147436,9.49133456 7.72865872,9.61646758 7.7626984,9.78281532 L7.77011494,9.85638589 C7.77011494,10.0324144 7.62919785,10.5181476 7.61916567,10.903457 L7.62,16.405 L7.62493911,16.5064312 C7.64982639,16.8163901 7.73870956,17.1626384 7.76359684,17.3595116 L7.77011494,17.4446407 C7.77011494,17.646253 7.6066759,17.809692 7.40506361,17.809692 L5.59493639,17.809692 C5.41852564,17.809692 5.27134128,17.684559 5.2373016,17.5182113 L5.22988506,17.4446407 C5.22988506,17.2686122 5.37080215,16.782879 5.38083433,16.3975696 L5.379,10.895 L5.37506089,10.7945954 C5.35017361,10.4846365 5.26129044,10.1383882 5.23640316,9.94151502 L5.22988506,9.85638589 C5.22988506,9.65477361 5.3933241,9.49133456 5.59493639,9.49133456 L7.40506361,9.49133456 Z M7.40506361,0 C7.58147436,0 7.72865872,0.125133021 7.7626984,0.291480754 L7.77011494,0.365051329 C7.77011494,0.54112255 7.62912941,1.02704897 7.61915839,1.41240313 L7.62,6.914 L7.62493911,7.01509665 C7.64982639,7.32505551 7.73870956,7.67130379 7.76359684,7.868177 L7.77011494,7.95330613 C7.77011494,8.15491841 7.6066759,8.31835746 7.40506361,8.31835746 L5.59493639,8.31835746 C5.41852564,8.31835746 5.27134128,8.19322444 5.2373016,8.02687671 L5.22988506,7.95330613 C5.22988506,7.77727765 5.37080215,7.29154441 5.38083433,6.906235 L5.379,1.404 L5.37506089,1.30326081 C5.35017361,0.993301953 5.26129044,0.647053669 5.23640316,0.450180456 L5.22988506,0.365051329 C5.22988506,0.163439047 5.3933241,2.22044605e-16 5.59493639,2.22044605e-16 L7.40506361,0 Z M2.17517856,11.6816425 C2.3515893,11.6816425 2.49877367,11.8067756 2.53281334,11.9731233 L2.54022989,12.0466939 C2.54022989,12.2227223 2.39931279,12.7084556 2.38928062,13.093765 L2.39,18.588 L2.39505405,18.6967392 C2.41994133,19.006698 2.5088245,19.3529463 2.53371179,19.5498195 L2.54022989,19.6349487 C2.54022989,19.836561 2.37679084,20 2.17517856,20 L0.365051329,20 C0.188640583,20 0.0414562186,19.874867 0.00741654555,19.7085192 L0,19.6349487 C0,19.4600783 0.139069019,18.9795648 0.150734348,18.5954953 L0.149,13.085 L0.145175837,12.9849034 C0.120288551,12.6749445 0.0314053852,12.3286962 0.00651809881,12.131823 L0,12.0466939 C0,11.8450816 0.163439047,11.6816425 0.365051329,11.6816425 L2.17517856,11.6816425 Z M2.17517856,2.19030798 C2.3515893,2.19030798 2.49877367,2.315441 2.53281334,2.48178873 L2.54022989,2.55535931 C2.54022989,2.73138778 2.39931279,3.21712103 2.38928062,3.60243044 L2.39,9.097 L2.39505405,9.20540463 C2.41994133,9.51536348 2.5088245,9.86161177 2.53371179,10.058485 L2.54022989,10.1436141 C2.54022989,10.3452264 2.37679084,10.5086654 2.17517856,10.5086654 L0.365051329,10.5086654 C0.188640583,10.5086654 0.0414562186,10.3835324 0.00741654555,10.2171847 L0,10.1436141 C0,9.96864331 0.139228755,9.48767834 0.150754314,9.10349926 L0.149,3.594 L0.145175837,3.49356879 C0.120288551,3.18360993 0.0314053852,2.83736165 0.00651809881,2.64048843 L0,2.55535931 C0,2.35374702 0.163439047,2.19030798 0.365051329,2.19030798 L2.17517856,2.19030798 Z M12.6349487,2.19030798 C12.8113594,2.19030798 12.9585438,2.315441 12.9925835,2.48178873 L13,2.55535931 C13,2.7303301 12.8607712,3.21129507 12.8492457,3.59547416 L12.85,9.104 L12.8548242,9.20540463 C12.8797114,9.51536348 12.9685946,9.86161177 12.9934819,10.058485 L13,10.1436141 C13,10.3452264 12.836561,10.5086654 12.6349487,10.5086654 L10.8248214,10.5086654 C10.6484107,10.5086654 10.5012263,10.3835324 10.4671867,10.2171847 L10.4597701,10.1436141 C10.4597701,9.96758563 10.6006872,9.48185238 10.6107194,9.09654298 L10.609,3.601 L10.604946,3.49356879 C10.5800587,3.18360993 10.4911755,2.83736165 10.4662882,2.64048843 L10.4597701,2.55535931 C10.4597701,2.35374702 10.6232092,2.19030798 10.8248214,2.19030798 L12.6349487,2.19030798 Z M12.6349487,11.6816425 C12.8113594,11.6816425 12.9585438,11.8067756 12.9925835,11.9731233 L13,12.0466939 C13,12.2216647 12.8607712,12.7026296 12.8492457,13.0868087 L12.85,18.595 L12.8548242,18.6967392 C12.8797114,19.006698 12.9685946,19.3529463 12.9934819,19.5498195 L13,19.6349487 C13,19.836561 12.836561,20 12.6349487,20 L10.8248214,20 C10.6484107,20 10.5012263,19.874867 10.4671867,19.7085192 L10.4597701,19.6349487 C10.4597701,19.4588774 10.6007557,18.972951 10.6107267,18.5875969 L10.609,13.092 L10.604946,12.9849034 C10.5800587,12.6749445 10.4911755,12.3286962 10.4662882,12.131823 L10.4597701,12.0466939 C10.4597701,11.8450816 10.6232092,11.6816425 10.8248214,11.6816425 L12.6349487,11.6816425 Z"></path><text fill="#999999" font-size="12" x="5206" y="2234">power by https://gantt-online.com</text>
</svg>